<svg width="159" height="70" role="img" aria-labelledby="LogoTitle" aria-describedby="LogoDesc" xmlns="http://www.w3.org/2000/svg" viewBox="0 0 196.3 83.2" preserveAspectRatio="xMidYMin meet">
                  <g>
                    <title id="LogoTitle">Link naar homepagina</title>
                    <desc id="LogoDesc">Logo agentschap Onroerend Erfgoed</desc>
                  </g>
                  <style>
                    .su0{fill:#914f9a}
                  </style>
                  <g id="Layer_1">
                    <path d="M80.5 23l-6.1 17.6h-3.6L64.7 23H68l4.6 13.4L77.2 23h3.3zm4.8-1.8h.4v19.1h-3.1V21.5l2.7-.3zm14.2 19.4c-1 0-2.1-.3-3.1-1.4-.5.4-1 .8-1.6 1-.6.3-1.2.4-2.1.4-.9 0-2.1-.2-3-.8-.9-.6-1.6-1.7-1.6-3.5 0-1.2.3-2.2 1-2.8.7-.6 1.9-1 3.8-1 .7 0 1.6 0 2.8.1v-.7c0-.9-.3-1.6-.8-2s-1.1-.6-1.9-.6c-1.2 0-2.6.4-3.7.9l-.7-2.7c1.4-.7 3.3-1.2 5-1.2 1.4 0 2.6.3 3.6 1 .9.7 1.5 1.8 1.5 3.5V36c0 .6.2 1.1.6 1.4.4.3.9.5 1.5.6l-1.3 2.6zm-3.7-5.8c-1.4 0-2.6 0-3.3.2-.8.2-1.2.6-1.2 1.4 0 1.1.8 1.7 1.9 1.7.4 0 1-.1 1.6-.4.6-.3 1-1 1-2v-.9zm17.3 5.8c-1 0-2.1-.3-3.1-1.4-.5.4-1 .8-1.6 1-.6.3-1.2.4-2.1.4-.9 0-2.1-.2-3-.8-.9-.6-1.6-1.7-1.6-3.5 0-1.2.3-2.2 1-2.8.7-.6 1.9-1 3.8-1 .7 0 1.6 0 2.8.1v-.7c0-.9-.3-1.6-.8-2-.5-.4-1.1-.6-1.9-.6-1.2 0-2.6.4-3.7.9l-.7-2.7c1.4-.7 3.3-1.2 5-1.2 1.4 0 2.6.3 3.6 1 .9.7 1.5 1.8 1.5 3.5V36c0 .6.2 1.1.6 1.4.4.3.9.5 1.5.6l-1.3 2.6zm-3.7-5.8c-1.4 0-2.6 0-3.3.2-.8.2-1.2.6-1.2 1.4 0 1.1.8 1.7 1.9 1.7.4 0 1-.1 1.6-.4.6-.3 1-1 1-2v-.9zm6.9-8.2h2.6l.3 1.1c1.3-.8 2.8-1.3 4.4-1.3 1.3 0 2.6.4 3.5 1.1.9.8 1.5 2 1.5 3.7v9.1h-3.1v-8.2c0-1-.4-1.7-.9-2.2-.6-.4-1.3-.6-2.2-.6-1.1 0-2.1.3-3 .8v10.1h-3.1V26.6zm27 13.7H141l-.6-1c-1.1.8-2.2 1.3-3.7 1.3-2 0-3.4-.8-4.4-2-1-1.2-1.4-2.8-1.4-4.5 0-2.6.8-4.5 2.1-5.8 1.3-1.3 3.1-1.9 5.2-1.9.6 0 1.3 0 2 .1v-5l2.6-.3h.5v19.1zm-3.1-10.8c-.8-.2-1.6-.3-2.2-.3-1.2 0-2.2.3-2.8 1.1-.7.7-1.1 1.8-1.1 3.2 0 1 .3 2.1.8 2.8.6.8 1.4 1.3 2.5 1.3.9 0 2-.3 2.8-.8v-7.3zm16.6 7.3v3c-1.2.6-2.7.8-3.9.8-1.9 0-3.7-.6-4.9-1.8-1.3-1.2-2.1-3-2.1-5.3s.8-4.1 1.9-5.3c1.1-1.2 2.7-1.8 4.2-1.8.4 0 1.2.1 2 .3.8.3 1.7.8 2.3 1.7.7.9 1.1 2.3 1.1 4.2v2.1h-8.3c.2 1.1.8 1.9 1.6 2.3.7.5 1.6.7 2.5.7 1.2 0 2.4-.3 3.4-.9h.2zm-2.2-4.6c-.1-1-.4-1.7-.9-2.2-.5-.5-1.1-.7-1.7-.7-.6 0-1.3.2-1.8.7-.5.5-.9 1.2-1.1 2.2h5.5zm13.5-2.2c-.8-.5-1.5-.7-2.3-.7-1 0-1.9.4-2.8 1v10h-3.1V26.6h2.6l.3 1.1c.9-.8 2.1-1.4 3.5-1.4.4 0 .9 0 1.4.1.5.1 1 .2 1.3.4l-.9 3.2zm12.7 6.8v3c-1.2.6-2.7.8-3.9.8-1.9 0-3.7-.6-4.9-1.8-1.3-1.2-2.1-3-2.1-5.3s.8-4.1 1.9-5.3c1.1-1.2 2.7-1.8 4.2-1.8.4 0 1.2.1 2 .3.8.3 1.7.8 2.3 1.7.7.9 1.1 2.3 1.1 4.2v2.1h-8.3c.2 1.1.8 1.9 1.6 2.3.7.5 1.6.7 2.5.7 1.2 0 2.4-.3 3.4-.9h.2zm-2.2-4.6c-.1-1-.4-1.7-.9-2.2-.5-.5-1.1-.7-1.7-.7-.6 0-1.3.2-1.8.7-.5.5-.9 1.2-1.1 2.2h5.5zm5.3-5.6h2.6l.3 1.1c1.3-.8 2.8-1.3 4.4-1.3 1.3 0 2.6.4 3.5 1.1.9.8 1.5 2 1.5 3.7v9.1h-3.1v-8.2c0-1-.4-1.7-.9-2.2-.6-.4-1.3-.6-2.2-.6-1.1 0-2.1.3-3 .8v10.1h-3.1V26.6zM69.5 48.7c0-.4.3-.8.8-.8.4 0 .8.3.8.8 0 .4-.4.8-.8.8-.4-.1-.8-.4-.8-.8zm.2 2h1.1v7.6h-1.1v-7.6zm3.1 6.4c.5.2 1.2.3 1.8.3.8 0 1.9-.4 1.9-1.2 0-.4-.2-.7-.6-.9-.5-.3-1.2-.5-1.9-.9-.8-.4-1.2-1-1.2-1.8 0-1.5 1.2-2 2.6-2 .6 0 1.1.1 1.5.2v1c-.4-.1-1.1-.2-1.7-.2-.7 0-1.3.2-1.3.9 0 .4.2.7.6.9.5.3 1.4.6 2.1 1 .8.4 1 .9 1 1.7 0 .8-.4 1.4-1 1.8-.6.4-1.4.6-2.1.6-.6 0-1.2-.1-1.7-.3v-1.1zm16.3-2.3h-4.7c.1 1.6 1.1 2.6 2.5 2.6.7 0 1.4-.2 2.1-.5v1c-.8.4-1.5.5-2.2.5-2.2 0-3.5-1.6-3.5-4 0-2.2 1-3.9 3.3-3.9 1.9 0 2.6 1.5 2.6 3.2v1.1zm-1.1-1c0-1.2-.3-2.2-1.5-2.2s-1.9.9-2.1 2.2H88zm2.8-3.1h.8l.3.9c.6-.7 1.2-1 1.9-1 .2 0 .4 0 .6.1.2 0 .4.1.6.2l-.4 1c-.3-.1-.7-.2-1-.2-.7 0-1.2.4-1.6 1v5.7h-1.1v-7.7zm4.7 0h1.2c0-1.1.2-1.9.6-2.3.4-.5 1-.6 1.6-.6.6 0 1.2.1 1.8.3l-.3 1c-.5-.2-1-.3-1.3-.3-.4 0-.7.1-.9.4-.2.3-.4.8-.4 1.5h1.7v1h-1.7v6.6h-1.1v-6.6h-1.2v-1zm8.6 6c1 0 1.8.2 2.3.6.5.4.7.9.7 1.5 0 .8-.5 1.6-1.2 2.1s-1.7.9-2.7.9c-.9 0-1.6-.3-2.1-.7-.5-.4-.8-1-.8-1.7 0-.6.3-1.3.9-1.9-.2-.1-.4-.3-.5-.5-.1-.2-.2-.5-.2-.7 0-.4.2-.9.5-1.3-.2-.2-.4-.5-.5-.8-.1-.3-.2-.7-.2-1 0-.7.3-1.4.8-1.8.5-.5 1.2-.7 2-.7.6 0 1.1.1 1.5.4.3-.2.7-.4 1-.6.3-.1.7-.2.9-.2l.3 1c-.4.1-.9.2-1.4.5.3.4.4.9.4 1.4 0 .7-.3 1.4-.8 1.9s-1.2.8-2 .8c-.5 0-1-.1-1.4-.3-.2.2-.3.4-.3.6 0 .4.3.7.9.7h1.9zm-1.9 1c-.4.5-.7 1.1-.7 1.6 0 .4.1.8.4 1.1s.8.4 1.4.4c.8 0 1.4-.2 1.9-.6.5-.4.7-.8.7-1.3 0-.6-.3-.9-.9-1-.5-.2-1.3-.2-2.1-.2h-.7zm1.2-6.1c-.6 0-1 .2-1.3.5-.3.3-.4.7-.4 1.1 0 .4.2.8.4 1.1.3.3.7.5 1.3.5.6 0 1-.2 1.3-.5.3-.3.4-.7.4-1.1 0-.4-.1-.8-.4-1.1-.3-.3-.7-.5-1.3-.5zm4.4 2.9c0-1.1.4-2.1 1-2.8.6-.7 1.5-1.2 2.5-1.2s1.9.4 2.5 1.2c.6.7.9 1.7.9 2.8 0 1.1-.4 2.1-1 2.8-.6.7-1.5 1.2-2.5 1.2s-1.9-.4-2.5-1.2c-.5-.7-.9-1.7-.9-2.8zm1.2 0c0 .8.2 1.5.6 2.1.4.5 1 .9 1.8.9s1.3-.3 1.7-.8c.4-.5.6-1.2.6-2s-.2-1.5-.6-2.1c-.4-.5-1-.9-1.8-.9s-1.3.3-1.7.8c-.4.5-.6 1.2-.6 2zm12.9.3h-4.7c.1 1.6 1.1 2.6 2.5 2.6.7 0 1.4-.2 2.1-.5v1c-.8.4-1.5.5-2.2.5-2.2 0-3.5-1.6-3.5-4 0-2.2 1-3.9 3.3-3.9 1.9 0 2.6 1.5 2.6 3.2v1.1zm-1.2-1c0-1.2-.3-2.2-1.5-2.2s-1.9.9-2.1 2.2h3.6zm8.7 4.5h-.7l-.2-.7c-.6.5-1.3.8-2.1.8-1 0-1.8-.5-2.4-1.2-.6-.7-.9-1.7-.9-2.9 0-1.1.3-2 .9-2.7.6-.7 1.6-1.1 2.9-1.1.5 0 1 .1 1.4.2v-2.9l1.1-.1h.1v10.6zm-1.2-6.4c-.5-.2-1-.3-1.5-.3-.8 0-1.4.2-1.9.7-.5.5-.7 1.2-.7 2.2 0 .8.2 1.5.5 2 .4.5.9.9 1.8.9.8 0 1.4-.3 1.8-.8v-4.7z" class="su0"></path>
                    <path d="M50.5-2.3h.4v87.7h-.4z" class="su0" transform="rotate(-18.785 50.698 41.547)"></path>
                    <path d="M37 41.4c-2-1.6-3 0-4.3-.1-1.1-.1-2.1-1.8-2.9-1.4-1.6.8.6 3.7 1.6 4.3.9.5 2 1 2.2 1.1 1.3.6 1.8 1.5 2 2.9 0 .3 0 1.1-.1 1.4-.6 2.5-5 4.8-7.5 3-1.2-.8-2.3-1.9-2.6-3.7-.7-3.3-3-5.7-3.8-8.9-.5-1.9-.8-4-1.3-6s-1-4-1.5-5.9c-.4-1.7-1.2-4.3-1.8-5.8-2.4-6.3-3.5-5.8-3.5-5.8s.9 1.7 4 17.1c.1.6 1.3 7.4 2.1 9.6.3.8.8 2.5 1.2 3.2 1 2.2 3.7 5.5 3.8 8.5.1 1.7.3 3.2.3 4.5 0 .4.2 1.9.4 2.6.7 1.8 5.9 7.7 11.5 7.7v-4.5c-5.5 0-10.8-3.1-10.9-3.4-.1-.1.3-2.3.7-3.2.7-1.8 2.1-3.5 4.5-3.7 2.7-.2 4.3.6 5.7.6l.2-14.1zM12.9 25.1c-.2 3.4-5.4 7.9-7 10.9-.8 1.4-1.8 3.9-2 5.4-.7 4 .2 6.5 1.2 8.8 1.7 4.1-.2 5.6 1.1 4.8 1.7-1.4 1.4-4.5 1.3-6.5-.1-1.6-.2-3.4 0-5.3.5-3.6 2.6-7.4 4.5-10.1 2.1-3.2 1.3-6.5.9-8m1 9.6s.6 2.7-1.8 9.5C6 62 17.7 63.7 21.1 67.9c0 0 1.3-1.8-4-7.6-1.9-2.1-3.7-6.8-2.2-13.5 2.2-9.8-1-12.1-1-12.1M2.4 22.9c-.3-1.1-.4-2-.3-2.8.3-4.2 4.1-5.9 5-6.5 0 0 1.7-1.2 1.9-2.4 0 0 1.8 4.4-2.3 6.9-2 1.4-3.4 2.9-4.3 4.8m9.6-4c.2.4 1.8 2.7-4.7 8.1-6.5 5.3-4.4 9.1-4.4 9.1s-6.9-3.8 1-10.5c7.9-6.6 6.3-8 6.3-8s1.2 0 1.8 1.3m8.4 2c1.1.1 1.8 3.6 4.4 4.4 1.9.6 3.9.3 4.4 1.4-.9.5-.2 2 .7 1.7.7-2 1-9.8-9.5-7.5zm3.4 1.6c.1-.2.2 0 .5-.2.3-.3.6-.8 1.1-.9.4-.1.8-.1 1.2.1.2.1.1.6-.1.8-.3.3-1.4-.2-1.4.6 0 1.3 1.7 0 2.6 0 .5 3-4.6 2.1-3.9-.4z" class="su0"></path>
                  </g>
                </svg>
